<svg xmlns="http://www.w3.org/2000/svg" width="1920" height="1080" viewBox="0 0 1920 1080" fill="none"> <rect width="1920" height="1080" fill="#131313"></rect> <path d="M990.655 577.02C986.874 576.652 983.97 575.476 981.944 573.493C979.918 571.509 977.751 567.847 975.448 562.501L944.043 486.933C943.723 486.16 942.836 485.795 942.065 486.117C941.703 486.268 941.413 486.553 941.258 486.912L935.404 500.438L955.399 547.984H918.86L916.467 553.517H958.164L961.622 562.503C964.2 569.6 967.658 574.372 971.99 576.813C973.208 577.499 974.473 578.103 975.773 578.618C969.213 581.235 965.927 586.572 965.914 594.631H973.795C973.797 593.811 973.856 592.99 973.97 592.177C974.627 588.156 977.597 580.565 990.655 580.195V579.786V577.02Z" fill="#F4F4F4"></path> <path d="M1025.96 577.01C1022.87 577.01 1020.37 574.51 1020.37 571.426V563.231V563.194V488.536H1007.93V563.194C1007.93 567.895 1008.3 571.396 1009.03 573.702C1009.77 576.005 1010.99 577.595 1012.7 578.47C1014.4 579.347 1016.96 579.785 1020.37 579.783H1025.96V577.01Z" fill="#F4F4F4"></path> <path d="M1059.1 505.504C1059.1 505.132 1059.11 504.774 1059.12 504.418V499.854C1059.12 495.564 1062.6 492.088 1066.88 492.088H1104.6V488.536H1058.84C1052.12 488.536 1046.66 493.99 1046.66 500.721V579.783H1059.1V553.516H1089.01V547.983H1059.1V505.504Z" fill="#F4F4F4"></path> <path d="M892.15 572.249C888.002 569.439 883.9 565.959 879.845 561.811L848.046 528.629L875.006 501.67C878.785 497.894 882.103 495.336 884.959 493.997C887.309 492.901 890.023 492.277 893.057 492.082V488.536H888.139C885.392 488.498 882.664 489.016 880.121 490.058C877.859 490.989 875.759 492.273 873.9 493.859C872.148 495.381 869.981 497.477 867.402 500.151L864.636 503.053L838.248 529.441L834.563 533.132L835.604 534.159L864.636 564.576C870.72 570.936 876.112 575.289 880.811 577.641C885.512 579.99 890.029 581.165 894.36 581.167C897.412 581.194 900.446 580.726 903.347 579.784V577.158C900.031 576.697 896.298 575.062 892.15 572.249Z" fill="#F4F4F4"></path> <path d="M835.497 576.93C832.525 576.646 830.477 575.555 829.379 573.632C828.087 571.373 827.443 567.895 827.443 563.194V541.59L816.936 552.059C815.697 553.295 815 554.973 815 556.723V563.194C815 567.893 815.369 571.397 816.106 573.7C816.843 576.007 818.066 577.595 819.77 578.47C821.474 579.347 824.032 579.785 827.443 579.783H835.497V576.93Z" fill="#F4F4F4"></path> </svg>