<?xml version="1.0" encoding="UTF-8"?> <svg xmlns="http://www.w3.org/2000/svg" width="2038" height="1079" viewBox="0 0 2038 1079" fill="none"> <path fill-rule="evenodd" clip-rule="evenodd" d="M908.376 1.02719C906.657 1.52519 904.759 2.52619 904.157 3.25219C902.618 5.10619 862 99.0542 862 100.76C862 101.529 892.883 175.572 930.629 265.3C968.375 355.027 999.477 429.229 999.746 430.191C1000.21 431.851 993.704 431.941 873.226 431.941H746.218L742.178 441.191C734.679 458.365 730 469.284 730 469.613C730 469.794 795.172 469.941 874.826 469.941H1019.65L1034.95 509.691C1051.54 552.766 1057.54 566.349 1066.37 580.836C1084.23 610.098 1102.54 626.705 1131.5 639.897L1141.83 644.601L1134.17 648.22C1107.45 660.833 1089.07 681.849 1080.17 709.974C1076.64 721.116 1074 737.518 1074 748.319V755.941H1100.94H1127.88L1128.36 751.691C1130.9 729.175 1133.62 719.491 1141.12 706.296C1150.07 690.55 1168.16 674.912 1186.25 667.27C1200.78 661.133 1221.25 656.837 1241.5 655.671L1245.5 655.441V644.525V633.609L1235.5 631.91C1198.51 625.627 1180.37 611.041 1157.55 569.231C1154.01 562.746 1148.2 550.916 1144.63 542.941C1141.07 534.966 1089.48 411.216 1029.99 267.941C970.499 124.666 921.154 6.39119 920.334 5.10719C919.147 3.24819 913.047 -0.372813 911.782 0.0311871C911.627 0.0811871 910.094 0.529187 908.376 1.02719ZM514 19.0192C484.155 22.8032 455.279 36.1312 431.359 57.1632C427.432 60.6162 364.786 123.11 292.146 196.039L160.072 328.636L163.175 331.539C164.881 333.135 212.955 383.266 270.004 442.941C327.054 502.616 381.329 558.895 390.616 568.005C425.732 602.455 454.706 624.336 484.5 638.906C517.507 655.047 545.374 661.942 577.5 661.917C597.711 661.901 614.552 659.607 632.75 654.39L638 652.885V643.586V634.287L631.462 633.082C591.121 625.649 533.614 586.899 475.951 528.293C465.749 517.925 411.565 461.571 355.542 403.064L253.682 296.687L355.591 195.032C411.641 139.122 462.01 89.6612 467.523 85.1202C490.295 66.3592 506.596 56.6112 525.606 50.3832C536.592 46.7852 555.955 42.9412 563.099 42.9412H567V30.4412V17.9412L543.75 18.0682C530.963 18.1382 517.575 18.5652 514 19.0192ZM1366.32 297.191C1366.59 498.272 1367.01 578.4 1367.82 583.441C1372.27 610.975 1376.94 623.445 1386.84 634.133C1399.97 648.312 1420.2 652.941 1469.05 652.941H1491V643.081V633.221L1485.38 632.641C1469.79 631.032 1456.18 617.723 1453.01 600.981C1452.35 597.489 1452 496.661 1452 306.805V17.9412H1408.98H1365.95L1366.32 297.191ZM1706.66 18.9892C1673.15 24.6142 1647.29 48.1732 1637.67 81.8482L1635.5 89.4412L1635.24 371.202L1634.97 652.962L1678.24 652.702L1721.5 652.441L1721.75 561.191L1722.01 469.941H1826H1930V450.941V431.941H1826H1722V260.651C1722 72.3502 1721.6 84.6142 1728.12 71.6962C1732.24 63.5512 1742.61 53.1762 1750.75 49.0652C1763.56 42.6012 1755.1 42.9412 1903.21 42.9412H2038V30.4412V17.9412L1874.75 18.0592C1784.96 18.1232 1709.32 18.5422 1706.66 18.9892ZM70.832 426.691C29.961 467.686 28.739 469.167 25.492 481.634C22.616 492.674 23.688 565.283 27.076 588.941C31.836 622.179 44.135 640.203 66.922 647.334C80.693 651.643 89.85 652.387 129.5 652.415L166.5 652.441L166.784 642.854L167.068 633.267L158.284 631.547C135.612 627.107 122.579 614.443 116.495 590.941C111.586 571.974 111.719 574.857 111.299 478.691C111.081 428.778 110.579 387.941 110.184 387.941C109.789 387.941 92.081 405.379 70.832 426.691ZM456.5 985.365C426.552 992.876 411.683 1024.99 425.213 1052.94C433.084 1069.2 449.486 1078.94 469 1078.94C483.704 1078.94 496.322 1073.74 505.211 1064.02C530.098 1036.81 516.074 992.527 480.201 985.046C473.391 983.626 462.869 983.768 456.5 985.365ZM1756.35 985.306C1732.34 991.382 1717.16 1013.97 1720.67 1038.35C1723.43 1057.55 1736.21 1071.93 1755.42 1077.47C1759.93 1078.78 1763.88 1079.08 1771.98 1078.75C1781.36 1078.36 1783.44 1077.93 1789.5 1075.09C1793.29 1073.32 1798.28 1070.31 1800.6 1068.41C1805.47 1064.42 1812.89 1054.75 1811.47 1054.25C1810.94 1054.06 1808.28 1052.6 1805.58 1051.01L1800.65 1048.11L1797.31 1052.49C1790.12 1061.9 1779.73 1066.48 1767.22 1065.74C1753.21 1064.92 1742.03 1057.74 1736.66 1046.12C1734.9 1042.31 1734.5 1039.58 1734.5 1031.44C1734.5 1022.53 1734.8 1020.82 1737.28 1015.78C1748.26 993.417 1783.11 990.437 1797.36 1010.64C1799.02 1013.01 1800.64 1014.94 1800.94 1014.93C1801.25 1014.93 1803.89 1013.55 1806.81 1011.88L1812.12 1008.83L1810.25 1005.86C1805.11 997.754 1795.43 990.039 1786.17 986.672C1779.13 984.115 1763.82 983.414 1756.35 985.306ZM0 1031.88V1078.94H7H14V1059.94V1040.94H32.318C45.827 1040.94 51.986 1040.54 55.774 1039.42C67.784 1035.85 75.176 1025.85 75.176 1013.17C75.176 1001.48 69.44 992.351 59.089 987.564C54.828 985.593 52.55 985.419 27.25 985.132L0 984.823V1031.88ZM214 1031.88V1078.94H221H228V1058.94V1038.94H242.426H256.852L268.025 1058.94L279.197 1078.94H286.099C291.839 1078.94 293 1078.66 293 1077.3C293 1076.39 288.201 1067.08 282.335 1056.6C272.539 1039.1 271.821 1037.47 273.519 1036.5C277.75 1034.08 284.425 1027.17 286.129 1023.44C288.42 1018.43 288.552 1008.92 286.418 1002.66C284.466 996.926 278.332 990.448 272.156 987.593C267.821 985.589 265.657 985.42 240.75 985.131L214 984.822V1031.88ZM641.029 986.691C641.045 987.653 649.512 1008.69 659.844 1033.44L678.63 1078.44H684.919H691.208L710.104 1033.09C720.497 1008.14 729 987.104 729 986.337C729 985.278 727.342 984.941 722.131 984.941H715.262L700.544 1021.19C692.449 1041.13 685.528 1057.75 685.163 1058.12C684.798 1058.49 677.793 1042.18 669.597 1021.87L654.693 984.941H647.847C641.982 984.941 641.004 985.192 641.029 986.691ZM864 1031.94V1078.94H898H932V1072.44V1065.94H905H878V1050.44V1034.94H895H912V1028.44V1021.94H895H878V1009.94V997.941H905H932V991.441V984.941H898H864V1031.94ZM1071 1031.94V1078.94H1077.99H1084.97L1085.24 1044.6L1085.5 1010.25L1110.81 1044.6L1136.12 1078.94H1142.06H1148V1031.94V984.941H1141.01H1134.03L1133.76 1019.51L1133.5 1054.08L1108.14 1019.51L1082.77 984.941H1076.89H1071V1031.94ZM1303.25 1029.83C1292.66 1054.57 1284 1075.74 1284 1076.87C1284 1078.75 1284.59 1078.94 1290.56 1078.94H1297.12L1301.53 1069.44L1305.93 1059.94H1328.34H1350.74L1355.05 1069.44L1359.36 1078.94H1366.18C1372.02 1078.94 1373 1078.69 1372.98 1077.19C1372.97 1076.23 1364.22 1055.19 1353.55 1030.44L1334.14 985.441L1328.32 985.152L1322.5 984.863L1303.25 1029.83ZM1508 1031.94V1078.94H1514.99H1521.97L1522.24 1044.35L1522.5 1009.77L1548 1044.35L1573.5 1078.94L1579.75 1078.94L1586 1078.94V1031.94V984.941H1579H1572V1019.44C1572 1038.42 1571.66 1053.92 1571.25 1053.89C1570.84 1053.86 1559.25 1038.36 1545.5 1019.45L1520.5 985.061L1514.25 985.001L1508 984.941V1031.94ZM1948 1031.94V1078.94H1982H2016V1072.44V1065.94H1989H1962V1050.47V1034.99L1979.25 1034.72L1996.5 1034.44L1996.8 1028.19L1997.09 1021.94H1979.55H1962V1009.94V997.941H1989H2016V991.441V984.941H1982H1948V1031.94ZM485.559 1000.9C492.492 1004.31 497.541 1009.45 501.182 1016.81C504.443 1023.39 504.528 1039.22 501.339 1046.12C498.114 1053.09 491.899 1059.25 484.747 1062.56C479.249 1065.1 477.362 1065.44 469 1065.44C460.638 1065.44 458.751 1065.1 453.253 1062.56C441.523 1057.14 435.008 1047.3 434.207 1033.79C433.399 1020.14 439.092 1008.73 449.945 1002.22C456.932 998.029 461.744 996.945 471.351 997.397C477.649 997.693 480.459 998.385 485.559 1000.9ZM53 999.833C62.494 1004.99 64.55 1016.23 57.266 1023.17C53.144 1027.1 47.388 1028.06 30 1027.73L14.5 1027.44L14.22 1013.99C14.065 1006.59 14.18 999.913 14.475 999.144C15.223 997.197 49.267 997.806 53 999.833ZM266.895 1000.44C272.062 1003.48 274.167 1006.93 274.167 1012.34C274.167 1017.54 272.373 1020.99 268.284 1023.68C266.008 1025.17 262.706 1025.49 246.797 1025.77L228 1026.1V1012.69C228 1005.31 228.337 998.934 228.75 998.517C229.163 998.101 237.15 997.913 246.5 998.1C261.321 998.397 263.935 998.697 266.895 1000.44ZM1336.45 1025.75C1340.6 1036.34 1344 1045.43 1344 1045.97C1344 1046.56 1337.7 1046.94 1328 1046.94C1319.2 1046.94 1312 1046.76 1312 1046.53C1312 1045.95 1327.04 1007.68 1327.67 1006.66C1327.96 1006.19 1328.36 1005.97 1328.55 1006.16C1328.75 1006.35 1332.3 1015.17 1336.45 1025.75Z" fill="white"></path> </svg> 